<?xml version="1.0" encoding="UTF-8" standalone="no"?>
<!-- Created with Inkscape (http://www.inkscape.org/) -->

<svg
   xmlns:dc="http://purl.org/dc/elements/1.1/"
   xmlns:cc="http://creativecommons.org/ns#"
   xmlns:rdf="http://www.w3.org/1999/02/22-rdf-syntax-ns#"
   xmlns:svg="http://www.w3.org/2000/svg"
   xmlns="http://www.w3.org/2000/svg"
   xmlns:sodipodi="http://sodipodi.sourceforge.net/DTD/sodipodi-0.dtd"
   xmlns:inkscape="http://www.inkscape.org/namespaces/inkscape"
   width="393.79395"
   height="202.46521"
   id="svg14198"
   version="1.1"
   inkscape:version="0.47 r22583"
   sodipodi:docname="trig_hw_int.svg">
  <defs
     id="defs14200">
    <marker
       inkscape:stockid="DotS"
       orient="auto"
       refY="0"
       refX="0"
       id="DotS"
       style="overflow:visible">
      <path
         id="path6323"
         d="m -2.5,-1 c 0,2.76 -2.24,5 -5,5 -2.76,0 -5,-2.24 -5,-5 0,-2.76 2.24,-5 5,-5 2.76,0 5,2.24 5,5 z"
         style="fill-rule:evenodd;stroke:#000000;stroke-width:1pt;marker-start:none;marker-end:none"
         transform="matrix(0.2,0,0,0.2,1.48,0.2)" />
    </marker>
    <marker
       inkscape:stockid="DotM"
       orient="auto"
       refY="0"
       refX="0"
       id="DotM"
       style="overflow:visible">
      <path
         id="path6320"
         d="m -2.5,-1 c 0,2.76 -2.24,5 -5,5 -2.76,0 -5,-2.24 -5,-5 0,-2.76 2.24,-5 5,-5 2.76,0 5,2.24 5,5 z"
         style="fill-rule:evenodd;stroke:#000000;stroke-width:1pt;marker-start:none;marker-end:none"
         transform="matrix(0.4,0,0,0.4,2.96,0.4)" />
    </marker>
    <marker
       inkscape:stockid="TriangleInM"
       orient="auto"
       refY="0"
       refX="0"
       id="TriangleInM"
       style="overflow:visible">
      <path
         id="path6392"
         d="m 5.77,0 -8.65,5 0,-10 8.65,5 z"
         style="fill-rule:evenodd;stroke:#000000;stroke-width:1pt;marker-start:none"
         transform="scale(-0.4,-0.4)" />
    </marker>
    <marker
       inkscape:stockid="TriangleOutM"
       orient="auto"
       refY="0"
       refX="0"
       id="TriangleOutM"
       style="overflow:visible">
      <path
         id="path6401"
         d="m 5.77,0 -8.65,5 0,-10 8.65,5 z"
         style="fill-rule:evenodd;stroke:#000000;stroke-width:1pt;marker-start:none"
         transform="scale(0.4,0.4)" />
    </marker>
    <inkscape:perspective
       sodipodi:type="inkscape:persp3d"
       inkscape:vp_x="0 : 526.18109 : 1"
       inkscape:vp_y="0 : 1000 : 0"
       inkscape:vp_z="744.09448 : 526.18109 : 1"
       inkscape:persp3d-origin="372.04724 : 350.78739 : 1"
       id="perspective14206" />
    <inkscape:perspective
       id="perspective14222"
       inkscape:persp3d-origin="0.5 : 0.33333333 : 1"
       inkscape:vp_z="1 : 0.5 : 1"
       inkscape:vp_y="0 : 1000 : 0"
       inkscape:vp_x="0 : 0.5 : 1"
       sodipodi:type="inkscape:persp3d" />
    <inkscape:perspective
       id="perspective15911"
       inkscape:persp3d-origin="0.5 : 0.33333333 : 1"
       inkscape:vp_z="1 : 0.5 : 1"
       inkscape:vp_y="0 : 1000 : 0"
       inkscape:vp_x="0 : 0.5 : 1"
       sodipodi:type="inkscape:persp3d" />
    <inkscape:perspective
       id="perspective15911-8"
       inkscape:persp3d-origin="0.5 : 0.33333333 : 1"
       inkscape:vp_z="1 : 0.5 : 1"
       inkscape:vp_y="0 : 1000 : 0"
       inkscape:vp_x="0 : 0.5 : 1"
       sodipodi:type="inkscape:persp3d" />
    <inkscape:perspective
       id="perspective15951"
       inkscape:persp3d-origin="0.5 : 0.33333333 : 1"
       inkscape:vp_z="1 : 0.5 : 1"
       inkscape:vp_y="0 : 1000 : 0"
       inkscape:vp_x="0 : 0.5 : 1"
       sodipodi:type="inkscape:persp3d" />
    <inkscape:perspective
       id="perspective15976"
       inkscape:persp3d-origin="0.5 : 0.33333333 : 1"
       inkscape:vp_z="1 : 0.5 : 1"
       inkscape:vp_y="0 : 1000 : 0"
       inkscape:vp_x="0 : 0.5 : 1"
       sodipodi:type="inkscape:persp3d" />
    <inkscape:perspective
       id="perspective15976-0"
       inkscape:persp3d-origin="0.5 : 0.33333333 : 1"
       inkscape:vp_z="1 : 0.5 : 1"
       inkscape:vp_y="0 : 1000 : 0"
       inkscape:vp_x="0 : 0.5 : 1"
       sodipodi:type="inkscape:persp3d" />
    <inkscape:perspective
       id="perspective15976-3"
       inkscape:persp3d-origin="0.5 : 0.33333333 : 1"
       inkscape:vp_z="1 : 0.5 : 1"
       inkscape:vp_y="0 : 1000 : 0"
       inkscape:vp_x="0 : 0.5 : 1"
       sodipodi:type="inkscape:persp3d" />
    <inkscape:perspective
       id="perspective15976-2"
       inkscape:persp3d-origin="0.5 : 0.33333333 : 1"
       inkscape:vp_z="1 : 0.5 : 1"
       inkscape:vp_y="0 : 1000 : 0"
       inkscape:vp_x="0 : 0.5 : 1"
       sodipodi:type="inkscape:persp3d" />
    <inkscape:perspective
       id="perspective15976-1"
       inkscape:persp3d-origin="0.5 : 0.33333333 : 1"
       inkscape:vp_z="1 : 0.5 : 1"
       inkscape:vp_y="0 : 1000 : 0"
       inkscape:vp_x="0 : 0.5 : 1"
       sodipodi:type="inkscape:persp3d" />
    <inkscape:perspective
       id="perspective16067"
       inkscape:persp3d-origin="0.5 : 0.33333333 : 1"
       inkscape:vp_z="1 : 0.5 : 1"
       inkscape:vp_y="0 : 1000 : 0"
       inkscape:vp_x="0 : 0.5 : 1"
       sodipodi:type="inkscape:persp3d" />
    <inkscape:perspective
       id="perspective16089"
       inkscape:persp3d-origin="0.5 : 0.33333333 : 1"
       inkscape:vp_z="1 : 0.5 : 1"
       inkscape:vp_y="0 : 1000 : 0"
       inkscape:vp_x="0 : 0.5 : 1"
       sodipodi:type="inkscape:persp3d" />
    <inkscape:perspective
       id="perspective16114"
       inkscape:persp3d-origin="0.5 : 0.33333333 : 1"
       inkscape:vp_z="1 : 0.5 : 1"
       inkscape:vp_y="0 : 1000 : 0"
       inkscape:vp_x="0 : 0.5 : 1"
       sodipodi:type="inkscape:persp3d" />
    <inkscape:perspective
       id="perspective16139"
       inkscape:persp3d-origin="0.5 : 0.33333333 : 1"
       inkscape:vp_z="1 : 0.5 : 1"
       inkscape:vp_y="0 : 1000 : 0"
       inkscape:vp_x="0 : 0.5 : 1"
       sodipodi:type="inkscape:persp3d" />
    <inkscape:perspective
       id="perspective17110"
       inkscape:persp3d-origin="0.5 : 0.33333333 : 1"
       inkscape:vp_z="1 : 0.5 : 1"
       inkscape:vp_y="0 : 1000 : 0"
       inkscape:vp_x="0 : 0.5 : 1"
       sodipodi:type="inkscape:persp3d" />
    <marker
       inkscape:stockid="TriangleOutM"
       orient="auto"
       refY="0"
       refX="0"
       id="TriangleOutM-7"
       style="overflow:visible">
      <path
         id="path3734-9"
         d="m 5.77,0 -8.65,5 0,-10 8.65,5 z"
         style="fill-rule:evenodd;stroke:#000000;stroke-width:1pt;marker-start:none"
         transform="scale(0.4,0.4)" />
    </marker>
    <inkscape:perspective
       id="perspective17138"
       inkscape:persp3d-origin="0.5 : 0.33333333 : 1"
       inkscape:vp_z="1 : 0.5 : 1"
       inkscape:vp_y="0 : 1000 : 0"
       inkscape:vp_x="0 : 0.5 : 1"
       sodipodi:type="inkscape:persp3d" />
    <marker
       inkscape:stockid="TriangleOutM"
       orient="auto"
       refY="0"
       refX="0"
       id="TriangleOutM-7-1"
       style="overflow:visible">
      <path
         id="path3734-9-0"
         d="m 5.77,0 -8.65,5 0,-10 8.65,5 z"
         style="fill-rule:evenodd;stroke:#000000;stroke-width:1pt;marker-start:none"
         transform="scale(0.4,0.4)" />
    </marker>
    <inkscape:perspective
       id="perspective17166"
       inkscape:persp3d-origin="0.5 : 0.33333333 : 1"
       inkscape:vp_z="1 : 0.5 : 1"
       inkscape:vp_y="0 : 1000 : 0"
       inkscape:vp_x="0 : 0.5 : 1"
       sodipodi:type="inkscape:persp3d" />
    <marker
       inkscape:stockid="TriangleOutM"
       orient="auto"
       refY="0"
       refX="0"
       id="TriangleOutM-7-6"
       style="overflow:visible">
      <path
         id="path3734-9-3"
         d="m 5.77,0 -8.65,5 0,-10 8.65,5 z"
         style="fill-rule:evenodd;stroke:#000000;stroke-width:1pt;marker-start:none"
         transform="scale(0.4,0.4)" />
    </marker>
    <inkscape:perspective
       id="perspective17166-6"
       inkscape:persp3d-origin="0.5 : 0.33333333 : 1"
       inkscape:vp_z="1 : 0.5 : 1"
       inkscape:vp_y="0 : 1000 : 0"
       inkscape:vp_x="0 : 0.5 : 1"
       sodipodi:type="inkscape:persp3d" />
    <marker
       inkscape:stockid="TriangleOutM"
       orient="auto"
       refY="0"
       refX="0"
       id="TriangleOutM-7-7"
       style="overflow:visible">
      <path
         id="path3734-9-5"
         d="m 5.77,0 -8.65,5 0,-10 8.65,5 z"
         style="fill-rule:evenodd;stroke:#000000;stroke-width:1pt;marker-start:none"
         transform="scale(0.4,0.4)" />
    </marker>
    <inkscape:perspective
       id="perspective17207"
       inkscape:persp3d-origin="0.5 : 0.33333333 : 1"
       inkscape:vp_z="1 : 0.5 : 1"
       inkscape:vp_y="0 : 1000 : 0"
       inkscape:vp_x="0 : 0.5 : 1"
       sodipodi:type="inkscape:persp3d" />
    <marker
       inkscape:stockid="TriangleOutM"
       orient="auto"
       refY="0"
       refX="0"
       id="TriangleOutM-7-2"
       style="overflow:visible">
      <path
         id="path3734-9-50"
         d="m 5.77,0 -8.65,5 0,-10 8.65,5 z"
         style="fill-rule:evenodd;stroke:#000000;stroke-width:1pt;marker-start:none"
         transform="scale(0.4,0.4)" />
    </marker>
    <inkscape:perspective
       id="perspective17903"
       inkscape:persp3d-origin="0.5 : 0.33333333 : 1"
       inkscape:vp_z="1 : 0.5 : 1"
       inkscape:vp_y="0 : 1000 : 0"
       inkscape:vp_x="0 : 0.5 : 1"
       sodipodi:type="inkscape:persp3d" />
    <marker
       inkscape:stockid="DotS"
       orient="auto"
       refY="0"
       refX="0"
       id="DotS-2"
       style="overflow:visible">
      <path
         id="path6323-5"
         d="m -2.5,-1 c 0,2.76 -2.24,5 -5,5 -2.76,0 -5,-2.24 -5,-5 0,-2.76 2.24,-5 5,-5 2.76,0 5,2.24 5,5 z"
         style="fill-rule:evenodd;stroke:#000000;stroke-width:1pt;marker-start:none;marker-end:none"
         transform="matrix(0.2,0,0,0.2,1.48,0.2)" />
    </marker>
    <marker
       inkscape:stockid="TriangleOutM"
       orient="auto"
       refY="0"
       refX="0"
       id="TriangleOutM-7-0"
       style="overflow:visible">
      <path
         id="path3734-9-08"
         d="m 5.77,0 -8.65,5 0,-10 8.65,5 z"
         style="fill-rule:evenodd;stroke:#000000;stroke-width:1pt;marker-start:none"
         transform="scale(0.4,0.4)" />
    </marker>
    <inkscape:perspective
       id="perspective17903-6"
       inkscape:persp3d-origin="0.5 : 0.33333333 : 1"
       inkscape:vp_z="1 : 0.5 : 1"
       inkscape:vp_y="0 : 1000 : 0"
       inkscape:vp_x="0 : 0.5 : 1"
       sodipodi:type="inkscape:persp3d" />
    <marker
       inkscape:stockid="DotS"
       orient="auto"
       refY="0"
       refX="0"
       id="DotS-7"
       style="overflow:visible">
      <path
         id="path6323-4"
         d="m -2.5,-1 c 0,2.76 -2.24,5 -5,5 -2.76,0 -5,-2.24 -5,-5 0,-2.76 2.24,-5 5,-5 2.76,0 5,2.24 5,5 z"
         style="fill-rule:evenodd;stroke:#000000;stroke-width:1pt;marker-start:none;marker-end:none"
         transform="matrix(0.2,0,0,0.2,1.48,0.2)" />
    </marker>
    <marker
       inkscape:stockid="TriangleOutM"
       orient="auto"
       refY="0"
       refX="0"
       id="TriangleOutM-7-8"
       style="overflow:visible">
      <path
         id="path3734-9-01"
         d="m 5.77,0 -8.65,5 0,-10 8.65,5 z"
         style="fill-rule:evenodd;stroke:#000000;stroke-width:1pt;marker-start:none"
         transform="scale(0.4,0.4)" />
    </marker>
    <inkscape:perspective
       id="perspective17903-67"
       inkscape:persp3d-origin="0.5 : 0.33333333 : 1"
       inkscape:vp_z="1 : 0.5 : 1"
       inkscape:vp_y="0 : 1000 : 0"
       inkscape:vp_x="0 : 0.5 : 1"
       sodipodi:type="inkscape:persp3d" />
    <marker
       inkscape:stockid="DotS"
       orient="auto"
       refY="0"
       refX="0"
       id="DotS-3"
       style="overflow:visible">
      <path
         id="path6323-7"
         d="m -2.5,-1 c 0,2.76 -2.24,5 -5,5 -2.76,0 -5,-2.24 -5,-5 0,-2.76 2.24,-5 5,-5 2.76,0 5,2.24 5,5 z"
         style="fill-rule:evenodd;stroke:#000000;stroke-width:1pt;marker-start:none;marker-end:none"
         transform="matrix(0.2,0,0,0.2,1.48,0.2)" />
    </marker>
    <marker
       inkscape:stockid="TriangleOutM"
       orient="auto"
       refY="0"
       refX="0"
       id="TriangleOutM-7-10"
       style="overflow:visible">
      <path
         id="path3734-9-05"
         d="m 5.77,0 -8.65,5 0,-10 8.65,5 z"
         style="fill-rule:evenodd;stroke:#000000;stroke-width:1pt;marker-start:none"
         transform="scale(0.4,0.4)" />
    </marker>
    <inkscape:perspective
       id="perspective17971"
       inkscape:persp3d-origin="0.5 : 0.33333333 : 1"
       inkscape:vp_z="1 : 0.5 : 1"
       inkscape:vp_y="0 : 1000 : 0"
       inkscape:vp_x="0 : 0.5 : 1"
       sodipodi:type="inkscape:persp3d" />
    <marker
       inkscape:stockid="DotS"
       orient="auto"
       refY="0"
       refX="0"
       id="DotS-6"
       style="overflow:visible">
      <path
         id="path6323-78"
         d="m -2.5,-1 c 0,2.76 -2.24,5 -5,5 -2.76,0 -5,-2.24 -5,-5 0,-2.76 2.24,-5 5,-5 2.76,0 5,2.24 5,5 z"
         style="fill-rule:evenodd;stroke:#000000;stroke-width:1pt;marker-start:none;marker-end:none"
         transform="matrix(0.2,0,0,0.2,1.48,0.2)" />
    </marker>
    <marker
       inkscape:stockid="TriangleOutM"
       orient="auto"
       refY="0"
       refX="0"
       id="TriangleOutM-7-4"
       style="overflow:visible">
      <path
         id="path3734-9-52"
         d="m 5.77,0 -8.65,5 0,-10 8.65,5 z"
         style="fill-rule:evenodd;stroke:#000000;stroke-width:1pt;marker-start:none"
         transform="scale(0.4,0.4)" />
    </marker>
    <inkscape:perspective
       id="perspective18005"
       inkscape:persp3d-origin="0.5 : 0.33333333 : 1"
       inkscape:vp_z="1 : 0.5 : 1"
       inkscape:vp_y="0 : 1000 : 0"
       inkscape:vp_x="0 : 0.5 : 1"
       sodipodi:type="inkscape:persp3d" />
    <inkscape:perspective
       id="perspective18005-6"
       inkscape:persp3d-origin="0.5 : 0.33333333 : 1"
       inkscape:vp_z="1 : 0.5 : 1"
       inkscape:vp_y="0 : 1000 : 0"
       inkscape:vp_x="0 : 0.5 : 1"
       sodipodi:type="inkscape:persp3d" />
    <inkscape:perspective
       id="perspective18005-4"
       inkscape:persp3d-origin="0.5 : 0.33333333 : 1"
       inkscape:vp_z="1 : 0.5 : 1"
       inkscape:vp_y="0 : 1000 : 0"
       inkscape:vp_x="0 : 0.5 : 1"
       sodipodi:type="inkscape:persp3d" />
  </defs>
  <sodipodi:namedview
     id="base"
     pagecolor="#ffffff"
     bordercolor="#666666"
     borderopacity="1.0"
     inkscape:pageopacity="0.0"
     inkscape:pageshadow="2"
     inkscape:zoom="1.979899"
     inkscape:cx="190.90029"
     inkscape:cy="187.42382"
     inkscape:document-units="px"
     inkscape:current-layer="layer1"
     showgrid="true"
     inkscape:window-width="1920"
     inkscape:window-height="1123"
     inkscape:window-x="0"
     inkscape:window-y="25"
     inkscape:window-maximized="1">
    <inkscape:grid
       type="xygrid"
       id="grid14208"
       empspacing="5"
       visible="true"
       enabled="true"
       snapvisiblegridlinesonly="true" />
  </sodipodi:namedview>
  <metadata
     id="metadata14203">
    <rdf:RDF>
      <cc:Work
         rdf:about="">
        <dc:format>image/svg+xml</dc:format>
        <dc:type
           rdf:resource="http://purl.org/dc/dcmitype/StillImage" />
        <dc:title></dc:title>
      </cc:Work>
    </rdf:RDF>
  </metadata>
  <g
     inkscape:label="Layer 1"
     inkscape:groupmode="layer"
     id="layer1"
     transform="translate(-100.64941,-34.764526)">
    <path
       style="fill:none;stroke:#000000;stroke-width:1.99999988;stroke-linecap:butt;stroke-linejoin:miter;stroke-miterlimit:4;stroke-opacity:1;stroke-dasharray:none;marker-end:url(#TriangleOutM)"
       d="m 140.52734,148.36218 283.8798,0"
       id="path14210" />
    <path
       style="fill:none;stroke:#000000;stroke-width:1.99999988;stroke-linecap:butt;stroke-linejoin:miter;stroke-miterlimit:4;stroke-opacity:1;stroke-dasharray:none;marker-start:url(#TriangleInM)"
       d="m 147.28639,53.735583 0,182.494147"
       id="path14212" />
    <path
       style="fill:none;stroke:#000000;stroke-width:0.99999994px;stroke-linecap:butt;stroke-linejoin:miter;stroke-opacity:1"
       d="m 148.25291,210.38101 c 1.21785,0 -0.51259,0.10551 1.4427,-0.65248 0.23802,-0.0923 0.48416,0.10728 0.72134,0 0.25001,-0.11306 0.47134,-0.53939 0.72134,-0.65248 0.23718,-0.10726 0.48417,0.10728 0.72136,0 0.74097,-0.33511 0.70171,-0.96983 1.44269,-1.30495 0.23717,-0.10726 0.48416,0.10727 0.72134,0 0.25001,-0.11306 0.47134,-0.53941 0.72135,-0.65248 0.23717,-0.10726 0.49809,0.24232 0.72134,0 0.21049,-0.22846 0.29954,-0.93586 0.4809,-1.30496 0.14338,-0.29181 0.3145,-0.47187 0.4809,-0.65247 2.3924,-2.16401 -0.56674,0.61515 1.20225,-1.30497 0.23532,-0.25543 0.49464,-0.3449 0.72133,-0.65248 0.10139,-0.13755 0.13049,-0.57789 0.24046,-0.65248 0.23327,-0.15825 0.48807,0.15824 0.72134,0 0.13833,-0.0938 0.76888,-2.26092 0.96179,-2.60992 1.7434,-2.36543 -0.38018,0.68779 0.72135,-1.30496 0.14912,-0.26976 0.33753,-0.36068 0.4809,-0.65248 0.35907,-0.73078 0.60272,-1.87914 0.96179,-2.60992 0.28113,-1.18409 0.82837,-1.19652 1.20224,-1.95744 0.27204,-0.55365 0.43842,-1.44559 0.72136,-1.95744 0.14911,-0.26976 0.32059,-0.43498 0.4809,-0.65248 0.16029,-0.43498 0.29953,-0.93586 0.48089,-1.30496 0.14337,-0.2918 0.33752,-0.36068 0.4809,-0.65249 0.18136,-0.36909 0.29953,-0.93585 0.4809,-1.30495 0.14337,-0.2918 0.33752,-0.36068 0.48089,-0.65247 0.18136,-0.36911 0.30387,-0.92068 0.48089,-1.30496 0.22567,-0.48988 0.49569,-0.8151 0.72135,-1.30497 0.17703,-0.38429 0.29954,-0.93586 0.4809,-1.30496 0.14338,-0.2918 0.33752,-0.36068 0.4809,-0.65247 0.18135,-0.3691 0.29954,-0.93586 0.4809,-1.30497 0.38934,-0.79236 0.4762,-0.30711 0.72134,-1.30496 0.0994,-0.40465 0.13292,-0.91589 0.24045,-1.30496 1.13253,-4.09764 -0.21504,2.06003 0.96179,-3.2624 0.0922,-0.41702 0.11373,-0.96107 0.24046,-1.30496 0.0567,-0.1538 0.17376,0.12064 0.24044,0 0.28294,-0.51184 0.4809,-1.30496 0.72135,-1.95743 0.0802,-0.2175 0.20461,-0.36069 0.24045,-0.65249 0.0507,-0.41266 -0.0507,-0.89229 0,-1.30495 0.0359,-0.2918 0.17758,-0.39656 0.24044,-0.65249 0.0994,-0.40465 0.13292,-0.91589 0.24045,-1.30496 0.27204,-0.98426 0.68976,-1.62566 0.9618,-2.60991 0.10753,-0.38907 0.1603,-0.86997 0.24045,-1.30496 0.1603,-0.43499 0.34488,-0.81284 0.4809,-1.30495 0.10753,-0.38908 0.14103,-0.90032 0.24044,-1.30497 0.18862,-0.76777 0.51732,-1.21925 0.72135,-1.95744 0.21507,-0.77814 0.28207,-1.80062 0.4809,-2.60993 0.23587,-0.9601 0.72591,-1.6498 0.96179,-2.60991 0.0445,-0.18098 -0.0567,-0.4987 0,-0.65248 0.12673,-0.3439 0.35417,-0.3086 0.48091,-0.65248 0.2398,-0.65076 0.48152,-3.26414 0.72133,-3.91488 0.12673,-0.3439 0.38149,-0.24784 0.4809,-0.65248 0.0889,-0.36193 -0.0889,-0.94303 0,-1.30497 0.0994,-0.40464 0.33178,-0.38271 0.4809,-0.65248 0.0943,-0.1706 0.1603,-0.43499 0.24045,-0.65248 0.0801,-0.21749 0.17757,-0.39655 0.24045,-0.65248 0.0994,-0.40464 0.14104,-0.9003 0.24044,-1.30496 0.12575,-0.51184 0.35516,-0.79311 0.4809,-1.30496 0.8717,-4.73086 -0.25345,1.03167 0.4809,-1.95743 0.0994,-0.40465 0.13292,-0.91589 0.24045,-1.30496 0.33662,-1.21796 0.86561,-2.04443 1.20225,-3.26241 0.10753,-0.38906 0.14103,-0.9003 0.24044,-1.30495 0.0629,-0.25593 0.17758,-0.39656 0.24045,-0.65248 0.0994,-0.40465 0.14104,-0.90031 0.24045,-1.30497 0.0629,-0.25591 0.1603,-0.43498 0.24045,-0.65247 0.1603,-0.43498 0.32059,-0.86997 0.4809,-1.30496 0.1603,-0.43498 0.29227,-0.96373 0.4809,-1.30497 0.14911,-0.26976 0.33177,-0.3827 0.48089,-0.65247 0.18862,-0.34123 0.29227,-0.96374 0.4809,-1.30496 0.14912,-0.26976 0.33178,-0.38271 0.48089,-0.65248 0.18863,-0.34123 0.29228,-0.96373 0.4809,-1.30497 0.0448,-0.081 0.94639,-1.26314 0.96179,-1.30495 0.49751,-1.35 -0.76024,0.0528 0.24046,-1.30496 0.12824,-0.17401 0.35265,0.174 0.48089,0 0.10138,-0.13756 0.13906,-0.51493 0.24045,-0.65249 0.0717,-0.0973 0.1603,0 0.24045,0 0.1603,0 0.32882,0.13756 0.4809,0 0.10753,-0.0973 0.13906,-0.51492 0.24045,-0.65247 0.14932,-0.20261 1.28862,0.20904 1.44269,0 0.10138,-0.13756 0.13907,-0.51493 0.24045,-0.65248 0.13806,-0.18731 1.24909,0.17512 1.44269,0 0.10753,-0.0973 0.13907,-0.51493 0.24045,-0.65249 0.0717,-0.0972 0.1603,0 0.24045,0 0.1603,0 0.32538,0.10551 0.48089,0 0.17387,-0.11794 0.30703,-0.53452 0.4809,-0.65247 0.30146,-0.20451 0.66033,0.20451 0.96179,0 0.17387,-0.11795 0.30703,-0.53453 0.4809,-0.65249 0.38878,-0.26374 0.81346,0.26376 1.20225,0 0.10996,-0.0746 0.13907,-0.51492 0.24044,-0.65247 0.13804,-0.18729 0.99758,0.13884 1.20225,0 0.17387,-0.11796 0.31087,-0.49869 0.48089,-0.65248 0.076,-0.0687 0.17376,0.12064 0.24045,0 0.18862,-0.34123 0.27814,-1.02984 0.4809,-1.30496 0.14338,-0.19453 0.32882,0.13755 0.4809,0 0.10753,-0.0973 0.13907,-0.51492 0.24045,-0.65248 0.0717,-0.0973 0.1603,0 0.24045,0 0.0802,-0.21749 0.13906,-0.51493 0.24044,-0.65248 0.0717,-0.0973 0.16877,0.0973 0.24045,0 0.10139,-0.13755 0.13292,-0.55521 0.24045,-0.65248 0.15207,-0.13755 0.32883,0.13756 0.4809,0 0.10753,-0.0973 0.1603,-0.43499 0.24045,-0.65247 0.1603,0 0.32538,0.10549 0.48089,0 0.43521,0.39326 0.4472,-1.05698 0.72136,-1.30496 0.15206,-0.13757 0.33751,0.19451 0.48089,0 0.20276,-0.27511 0.27813,-1.02987 0.48089,-1.30497 0.14338,-0.19453 0.32883,0.13756 0.4809,0 0.10754,-0.0973 0.16031,-0.43499 0.24045,-0.65248 0.1603,0 0.32882,0.13755 0.4809,0 0.21507,-0.19453 0.29227,-0.96373 0.4809,-1.30496 1.74339,-2.36543 -0.38018,0.68778 0.72134,-1.30496 0.14913,-0.26976 0.33752,-0.36067 0.4809,-0.65248 0.27203,-0.55365 0.43841,-1.44559 0.72135,-1.95744 1.7434,-2.36543 -0.38019,0.68778 0.72135,-1.30496 0.14911,-0.26977 0.35416,-0.30859 0.4809,-0.65247 0.12672,-0.3439 0.11371,-0.96108 0.24044,-1.30497 0.0567,-0.15378 0.16441,0.0688 0.24045,0 0.17002,-0.15378 0.35417,-0.30859 0.48089,-0.65248 0.12673,-0.34388 0.11373,-0.96107 0.24045,-1.30496 0.0567,-0.153787 0.16876,0.0973 0.24045,0 0.18368,-0.249211 0.55853,-1.810158 0.72135,-1.957438 0.15207,-0.13754 0.32882,0.137553 0.4809,0 0.10752,-0.09726 0.13292,-0.555221 0.24044,-0.652484 0.15207,-0.13754 0.32883,0.13756 0.4809,0 0.18245,-0.165029 0.74081,-2.310086 0.9618,-2.60991 0.33166,-0.450003 0.21507,0.790186 0.48089,-0.652477 0.12824,-0.695986 -0.23803,-0.872167 0.24045,-1.304969 0.5496,-0.497121 0.39913,0.659108 0.72135,-0.65247 0.0994,-0.404658 0.0913,-1.035202 0.24045,-1.304962 0.13337,-0.241298 0.32882,0.137553 0.48089,0 0.16282,-0.147286 0.53767,-1.708227 0.72135,-1.957439 0.0717,-0.09727 0.16877,0.09726 0.24045,0 0.10138,-0.13756 0.1603,-0.434985 0.24044,-0.652484 0.16031,-0.434985 0.29228,-0.963725 0.4809,-1.304962 0.0667,-0.120642 0.16876,0.09726 0.24045,0 0.10138,-0.137553 0.14614,-0.481859 0.24045,-0.652478 0.29824,-0.539531 0.66356,-0.765428 0.9618,-1.304957 0.0943,-0.170626 0.13906,-0.514937 0.24045,-0.652484 0.0717,-0.09727 0.18377,0.153793 0.24045,0 0.12672,-0.343888 0.11371,-0.961074 0.24044,-1.304962 0.0567,-0.153794 0.16876,0.09727 0.24045,0 0.20277,-0.275111 0.29228,-0.963733 0.4809,-1.304955 0.1603,-0.2175 0.32059,-0.434984 0.4809,-0.652484 0.0802,0 0.16876,0.09727 0.24045,0 0.10138,-0.137556 0.13291,-0.55521 0.24045,-0.652478 0.15207,-0.137562 0.32537,0.105502 0.48089,0 1.16111,-0.787701 -0.012,-0.310082 0.72135,-1.30497 0.22691,-1.618006 0.64828,-0.368895 0.96179,-0.652469 1.74167,-1.575395 -0.37909,0.188104 0.72134,-1.304962 0.0717,-0.09727 0.16877,0.09727 0.24046,0 0.10138,-0.137562 0.13291,-0.555218 0.24044,-0.652485 0.15208,-0.137547 0.3206,0 0.4809,0 0.0802,0 0.16876,0.09727 0.24045,0 0.10138,-0.137547 0.13291,-0.55521 0.24045,-0.652477 0.001,-7.43e-4 0.72112,6.24e-4 0.72135,0 0.0567,-0.153794 -0.0567,-0.498684 0,-0.652477 0.0567,-0.153801 0.16876,0.09727 0.24045,0 0.10138,-0.137556 0.13907,-0.51493 0.24044,-0.652485 0.14338,-0.194519 0.32883,0.137555 0.4809,0 1.74167,-1.575395 -0.37909,0.188119 0.72135,-1.304954 0.14337,-0.194535 0.32882,0.137555 0.48089,0 1.36231,-1.848376 -0.35844,0.24316 0.9618,-0.652485 0.17386,-0.117954 0.31087,-0.498688 0.48089,-0.652478 0.22811,-0.206332 0.48808,0.15825 0.72135,0 0.17387,-0.117953 0.31088,-0.498689 0.4809,-0.65248 0.076,-0.06878 0.1603,0 0.24045,0 0.24045,0 0.48807,0.15825 0.72134,0 0.10997,-0.0746 0.13049,-0.577881 0.24046,-0.65248 0.46653,-0.316499 0.97112,0.255924 1.44269,0 0.17573,-0.09538 0.30515,-0.557103 0.48089,-0.65248 1.36743,0 0.1583,0.291798 1.20225,-0.65248 0.20244,-0.183114 1.05908,0.194231 1.20224,0 0.10139,-0.137555 0.13907,-0.514925 0.24045,-0.652479 0.0717,-0.09727 0.1603,0 0.24044,0 0.0802,0 0.1603,0 0.24046,0 0.25649,0 1.01795,0 1.20224,0 0.1603,0 0.32278,0.07151 0.4809,0 0.32597,-0.147426 0.63582,-0.505057 0.96179,-0.652481 0.15812,-0.0715 0.32371,0.08531 0.4809,0 0.24853,-0.134884 0.47282,-0.517596 0.72135,-0.65248 0.15718,-0.08531 0.32538,0.1055 0.48089,0 0.17387,-0.117952 0.30516,-0.557102 0.4809,-0.652479 0.23578,-0.127962 0.4809,0 0.72134,0 0.24045,0 0.4809,0 0.72135,0 1.20224,0 2.40449,0 3.60672,0 0.64121,0 1.2824,0 1.9236,0 0.13434,0 1.06035,-0.128348 1.20224,0 0.50297,0.454946 0.95008,1.422734 1.4427,1.95744 0.23533,0.255433 0.49464,0.344897 0.72135,0.652479 0.10138,0.137555 0.13906,0.514925 0.24044,0.65248 0.2267,0.307582 0.49464,0.344898 0.72134,0.65248 0.10139,0.137555 0.14615,0.481865 0.24046,0.65248 0.15322,0.277204 1.28672,1.851629 1.44269,1.957443 0.15551,0.105493 0.32882,-0.137556 0.4809,0 0.10753,0.09726 0.16029,0.434985 0.24044,0.652477 0.1603,0.217492 0.30703,0.534531 0.4809,0.652477 0.711,0.482334 0.28064,-0.733796 0.9618,0.652485 0.18135,0.369095 0.27041,1.076487 0.48089,1.304954 0.22325,0.242329 0.48808,-0.158248 0.72135,0 0.21992,0.149198 0.27813,1.029852 0.4809,1.304962 0.0717,0.09727 0.16876,-0.09727 0.24044,0 0.28855,0.391482 0.43281,1.565958 0.72135,1.957439 0.14338,0.194535 0.32882,-0.137547 0.4809,0 0.10753,0.09727 0.1603,0.434985 0.24044,0.652485 0.16031,0.434985 0.29954,0.935859 0.4809,1.304962 0.97176,1.977717 0.11422,0.103311 0.72135,0.65247 0.17003,0.153794 0.31087,0.498691 0.4809,0.652485 0.15207,0.137555 0.33752,-0.194535 0.48089,0 0.10138,0.137555 0.13907,0.514929 0.24045,0.652477 0.0717,0.09727 0.16442,-0.06875 0.24045,0 0.17002,0.153794 0.31087,0.498691 0.4809,0.652485 0.076,0.06876 0.16441,-0.06875 0.24045,0 0.87169,0.788473 0.17113,0.309577 0.72135,1.304962 0.0857,1.602821 0.51045,0.270965 0.72133,0.652479 0.16032,0.434985 0.32061,0.869977 0.4809,1.304962 0.0802,0 0.16877,-0.09727 0.24046,0 0.10138,0.137547 0.13291,0.555215 0.24044,0.652478 0.15208,0.137553 0.32539,-0.105502 0.4809,0 0.56178,0.381115 0.6191,1.429963 1.20225,1.957439 0.076,0.06875 0.16029,0 0.24044,0 0.0802,0.217492 0.13907,0.514917 0.24045,0.652484 0.0717,0.09726 0.1603,0 0.24045,0 0.1603,0.217486 0.33178,0.382704 0.4809,0.652477 0.18862,0.341231 0.29228,0.963725 0.4809,1.304955 1.74339,2.365442 -0.38018,-0.687773 0.72134,1.304969 0.14912,0.26976 0.33752,0.360676 0.4809,0.652477 0.18136,0.369084 0.29954,0.935857 0.4809,1.304962 0.14338,0.291794 0.33752,0.360676 0.4809,0.652477 0.18135,0.369098 0.2865,0.988456 0.48089,1.304955 0.43467,0.707713 0.9893,0.689801 1.4427,1.304962 0.25847,0.350693 0.47353,0.901506 0.72134,1.304956 0.45493,0.74069 0.96802,1.3134 1.44269,1.95744 0.12109,1.43752 0.49466,0.34491 0.72135,0.65249 0.10138,0.13754 0.13906,0.51492 0.24045,0.65247 0.0717,0.0973 0.18377,-0.1538 0.24044,0 0.29287,0.79471 0.11264,1.45779 0.48091,1.95744 0.0717,0.0973 0.16875,-0.0973 0.24043,0 0.28855,0.39149 0.43282,1.56595 0.72136,1.95744 0.0717,0.0973 0.16876,-0.0973 0.24044,0 0.20277,0.27512 0.29228,0.96373 0.4809,1.30496 0.14913,0.26977 0.33178,0.38271 0.4809,0.65248 0.35381,0.64007 0.60798,1.96984 0.96179,2.60993 0.14913,0.26976 0.33178,0.3827 0.4809,0.65247 0.18463,0.33401 0.29627,0.97096 0.4809,1.30496 0.14911,0.26976 0.33178,0.38271 0.48089,0.65248 0.0943,0.17062 0.14614,0.48187 0.24046,0.65248 0.33121,0.59918 0.63058,0.70578 0.96179,1.30497 0.18863,0.34122 0.29227,0.96372 0.4809,1.30495 0.51986,0.94048 0.44192,0.36449 0.9618,1.30496 0.0943,0.17062 0.14613,0.48186 0.24043,0.65247 0.14913,0.26979 0.33179,0.38273 0.4809,0.65249 0.0943,0.17062 0.13292,0.55522 0.24046,0.65248 0.15207,0.13755 0.32882,-0.13756 0.4809,0 0.10753,0.0973 0.13906,0.51493 0.24044,0.65247 0.0717,0.0973 0.16442,-0.0688 0.24045,0 1.3623,1.84838 -0.35844,-0.24315 0.9618,0.65249 0.17386,0.11795 0.31087,0.49869 0.4809,0.65248 0.15693,0.14196 1.1552,0 1.44269,0 0.0802,0 0.16029,0 0.24044,0 0.0802,0 0.18378,-0.15379 0.24045,0 0.12673,0.34388 0.0971,1.01316 0.24045,1.30495 0.9289,1.89048 0.43281,-0.0435 1.20225,0.65248 0.34004,0.3076 0.63233,0.92182 0.96179,1.30497 0.23296,0.27092 0.48403,0.41099 0.72135,0.65248 0.80827,0.8225 1.58554,1.86917 2.40448,2.60992 0.31351,0.28358 0.65238,0.33761 0.96179,0.65248 0.33562,0.34152 0.64121,0.86998 0.9618,1.30496 0.16031,0.21749 0.33752,0.36067 0.48089,0.65247 0.18136,0.3691 0.27814,1.02987 0.4809,1.30497 0.14338,0.19453 0.33752,-0.19453 0.4809,0 0.20277,0.27511 0.30675,0.91114 0.4809,1.30496 0.30787,0.69618 0.64886,1.27811 0.9618,1.95744 0.40689,0.88333 0.24274,1.30703 0.96179,1.95744 0.22811,0.20634 0.48556,-0.12797 0.72135,0 0.62263,0.33791 0.32864,0.59453 0.72134,1.30496 0.0857,1.60282 0.51046,0.27097 0.72135,0.65249 0.26885,0.48634 0.70008,1.89974 0.9618,2.6099 0.0802,0.21751 0.14613,0.48188 0.24044,0.65249 0.14912,0.26977 0.33178,0.38271 0.4809,0.65247 0.0943,0.17062 0.16029,0.43499 0.24045,0.65248 0.24044,0.65248 0.45581,1.38101 0.72135,1.95744 0.13994,0.30382 0.33751,0.3607 0.48089,0.65249 0.18136,0.36909 0.29954,0.93586 0.4809,1.30495 0.14337,0.29181 0.33178,0.38272 0.4809,0.65249 0.0943,0.1706 0.1603,0.43498 0.24045,0.65248 0.16029,0.2175 0.33177,0.38271 0.4809,0.65248 0.25871,0.46802 0.22218,0.83693 0.48089,1.30496 0.14912,0.26976 0.33177,0.38271 0.4809,0.65248 0.0943,0.17061 0.14613,0.48186 0.24044,0.65248 0.14913,0.26976 0.35418,0.30859 0.4809,0.65248 1.22879,3.33441 -1.0082,-0.91004 0.72135,2.60992 0.14337,0.29179 0.37337,0.26341 0.4809,0.65248 0.15207,0.55021 0.0884,1.40722 0.24044,1.95744 0.10753,0.38906 0.35418,0.30859 0.4809,0.65248 0.12673,0.34388 0.11372,0.96107 0.24045,1.30496 0.12673,0.34388 0.33753,0.36068 0.4809,0.65249 0.18136,0.36908 0.29227,0.96371 0.48089,1.30495 0.0667,0.12064 0.16877,-0.0973 0.24046,0 0.23661,0.32103 0.72518,2.28889 0.96178,2.60992 0.0717,0.0973 0.16877,-0.0973 0.24046,0 0.10138,0.13754 0.1603,0.43498 0.24044,0.65247 0.16031,0.435 0.32061,0.86998 0.4809,1.30497 0.1603,0.43499 0.35515,0.79311 0.4809,1.30496 0.0994,0.40464 0.11372,0.96107 0.24045,1.30495 0.0567,0.1538 0.20461,-0.19454 0.24045,0 0.0717,0.38907 -0.0717,0.9159 0,1.30496 0.0359,0.19454 0.18377,-0.15379 0.24045,0 0.0567,0.1538 -0.0359,0.45796 0,0.65249 0.0507,0.2751 0.1603,0.43498 0.24044,0.65247 0.154,0.41788 0.81179,1.99933 0.9618,2.60993 0.0994,0.40466 0.14104,0.90031 0.24045,1.30495 0.12316,0.50131 0.35774,0.80365 0.4809,1.30497 0.0994,0.40465 0.14103,0.90031 0.24044,1.30496 0.0629,0.25592 0.17758,0.39655 0.24045,0.65247 0.0994,0.40466 0.14103,0.90032 0.24045,1.30497 0.0629,0.25591 0.1603,0.43498 0.24045,0.65247 0.3206,0.86997 0.67856,1.6492 0.9618,2.60993 0.18052,0.61233 0.3075,1.33009 0.48089,1.95743 0.068,0.24607 0.1603,0.43498 0.24045,0.65248 0.40075,1.08747 0.8015,2.17494 1.20225,3.2624 0.16029,0.43499 0.35514,0.79311 0.4809,1.30496 0.0994,0.40466 0.14103,0.90031 0.24044,1.30496 0.0629,0.25593 0.17758,0.39655 0.24046,0.65249 0.0994,0.40465 0.13291,0.91589 0.24044,1.30495 0.13601,0.49214 0.34488,0.81284 0.48089,1.30496 0.10753,0.38907 0.11373,0.96108 0.24045,1.30496 0.12673,0.34388 0.33753,0.36068 0.4809,0.65248 0.007,0.0135 0.90385,2.29544 0.9618,2.60992 0.0359,0.19454 -0.0444,0.47152 0,0.65248 0.13679,0.88306 0.53272,1.18966 0.72134,1.95744 0.0994,0.40464 0.14104,0.90031 0.24045,1.30496 0.0629,0.25593 0.1603,0.43498 0.24045,0.65248 0.1603,0.43499 0.3206,0.86997 0.48089,1.30496 0.16031,0.43499 0.34488,0.81282 0.4809,1.30495 0.10754,0.38908 0.13292,0.91591 0.24046,1.30496 1.04,2.82218 0.0377,-0.17284 0.72134,2.60993 0.0629,0.25592 0.16029,0.43499 0.24045,0.65247 0.0802,0.2175 0.13907,0.51493 0.24045,0.65249 0.0717,0.0973 0.16875,-0.0973 0.24045,0 0.10138,0.13755 0.16029,0.435 0.24044,0.65247 0.1603,0.435 0.29954,0.93587 0.4809,1.30496 0.33182,0.67533 0.62998,0.62964 0.96179,1.30497 0.18136,0.3691 0.29954,0.93586 0.4809,1.30497 0.14338,0.2918 0.33753,0.36066 0.4809,0.65246 0.27204,0.55365 0.43841,1.4456 0.72135,1.95745 0.14912,0.26976 0.3206,0.43499 0.4809,0.65249 0.54059,0.73348 1.08201,1.63118 1.68313,1.95743 0.15719,0.0853 0.32539,-0.1055 0.4809,0 0.17387,0.11795 0.3206,0.43498 0.4809,0.65248 0.24045,0.21749 0.47546,0.48566 0.72134,0.65248 0.22631,0.15352 0.49505,-0.15353 0.72135,0 0.17387,0.11795 0.30703,0.53453 0.4809,0.65249 0.15551,0.10548 0.3206,0 0.4809,0 0.16029,0 0.32059,0 0.48089,0 0.0802,0 0.16441,-0.0688 0.24045,0 0.17002,0.15378 0.31088,0.49868 0.4809,0.65247 0.2555,0.23111 0.70629,-0.23112 0.9618,0 0.17002,0.15378 0.30702,0.53452 0.4809,0.65248 0.31101,0.211 0.64741,-0.17062 0.96178,0 0.24854,0.13488 0.47282,0.51759 0.72135,0.65248 0.31437,0.17061 0.65765,-0.27511 0.9618,0 0.10753,0.0973 0.13292,0.55521 0.24044,0.65248 0.29864,0.27012 0.8861,-0.21446 1.20225,0 0.17387,0.11795 0.30703,0.53453 0.48089,0.65249 0.15552,0.10548 0.3206,0 0.4809,0 0.40075,0 0.8015,0 1.20225,0 1.20224,0 2.40448,0 3.60673,0 0.24045,0 0.48089,0 0.72135,0 0.16029,0 0.32538,-0.10551 0.48089,0 0.17387,0.11793 0.30703,0.53452 0.4809,0.65246 0.15551,0.10551 0.32059,0 0.4809,0 0.4809,0 0.96179,0 1.44269,0 0.32059,0 0.64742,-0.17061 0.96179,0 0.24854,0.1349 0.47546,0.48568 0.72135,0.65249 0.0778,0.0527 0.1603,0 0.24045,0 0.24045,0 0.48089,0 0.72134,0 0.4809,0 0.9618,0 1.44269,0 0.56105,0 1.1221,0 1.68314,0 0.10829,0 0.64817,0.0993 0.72135,0 0.10138,-0.13755 0.14614,-0.48186 0.24045,-0.65249 0.14912,-0.26976 0.33178,-0.3827 0.4809,-0.65246 0.0943,-0.17063 0.13291,-0.55523 0.24045,-0.65249 0.15207,-0.13756 0.32882,0.13755 0.48089,0 0.10753,-0.0973 0.14614,-0.48187 0.24045,-0.65248 0.63029,-1.14025 0.4202,-0.24388 1.20224,-1.30496 0.10139,-0.13756 0.14615,-0.48186 0.24045,-0.65247 0.14912,-0.26978 0.33178,-0.38272 0.48091,-0.65249 0.0943,-0.17061 0.13906,-0.51493 0.24044,-0.65248 0.22692,-1.618 0.64828,-0.3689 0.96179,-0.65248 0.36823,-0.33307 0.59358,-0.97189 0.9618,-1.30496 0.076,-0.0688 0.16269,0.0527 0.24044,0 0.31283,-0.21222 0.90375,-0.76496 1.20225,-1.30496 0.0943,-0.17062 0.14614,-0.48186 0.24045,-0.65248 0.14912,-0.26978 0.33178,-0.38272 0.4809,-0.65248 0.0943,-0.17062 0.14614,-0.48186 0.24045,-0.65249 0.14911,-0.26975 0.33177,-0.3827 0.48089,-0.65246 0.27744,-0.50191 0.44391,-1.45554 0.72135,-1.95746 0.14912,-0.26976 0.33177,-0.3827 0.4809,-0.65248 0.0943,-0.1706 0.14614,-0.48185 0.24045,-0.65246 0.33147,-0.59968 0.63031,-0.7053 0.96179,-1.30497 0.28294,-0.51185 0.44931,-1.4038 0.72134,-1.95744 0.14338,-0.2918 0.33178,-0.38271 0.4809,-0.65249 0.35382,-0.64006 0.60798,-1.96984 0.96179,-2.60992 1.7434,-2.36542 -0.38017,0.68779 0.72135,-1.30495 0.15106,-0.27326 0.81075,-1.03171 0.9618,-1.30496 0.0943,-0.17062 0.13291,-0.55522 0.24045,-0.65248 0.15207,-0.13755 0.32883,0.13756 0.4809,0 0.10753,-0.0973 0.13907,-0.51492 0.24044,-0.65247 0.0717,-0.0973 0.16876,0.0973 0.24045,0 0.23661,-0.32103 0.72519,-2.2889 0.9618,-2.60993 1.76729,-1.59857 0.12245,0.21346 0.96179,-1.30496 0.14913,-0.26977 0.35417,-0.30858 0.4809,-0.65248 0.12673,-0.34388 0.11371,-0.96107 0.24045,-1.30496 0.0567,-0.15379 0.16876,0.0973 0.24044,0 0.28854,-0.3915 0.43282,-1.56595 0.72135,-1.95744 0.0717,-0.0973 0.16876,0.0973 0.24045,0 0.20277,-0.2751 0.29227,-0.96373 0.4809,-1.30496 0.14912,-0.26976 0.33177,-0.38271 0.4809,-0.65248 0.0943,-0.17062 0.13906,-0.51493 0.24044,-0.65247 0.0717,-0.0973 0.18378,0.15378 0.24046,0 0.12672,-0.3439 0.11371,-0.96108 0.24044,-1.30497 0.0567,-0.15379 0.16876,0.0973 0.24045,0 0.30414,-0.41267 0.4172,-1.54478 0.72135,-1.95744 0.14338,-0.19453 0.32882,0.13755 0.48089,0 0.10754,-0.0973 0.13292,-0.55521 0.24045,-0.65248 1.0946,0 0.0138,0.30759 0.72135,-0.65248 0.0717,-0.0973 0.18377,0.15379 0.24044,0 0.0567,-0.15378 -0.0567,-0.49869 0,-0.65248 0.0567,-0.15379 0.18378,0.15379 0.24046,0 0.12672,-0.34388 0.11372,-0.96108 0.24044,-1.30496 0.0567,-0.15379 0.16876,0.0973 0.24045,0 0.20277,-0.2751 0.29227,-0.96373 0.4809,-1.30495 0.14912,-0.26977 0.33178,-0.38272 0.4809,-0.65249 0.0943,-0.17061 0.1603,-0.43499 0.24044,-0.65247 0.24046,-0.65249 0.4809,-1.30497 0.72135,-1.95744 0.0802,-0.2175 0.13907,-0.51493 0.24045,-0.65249 0.0717,-0.0973 0.16876,0.0973 0.24045,0 0.10138,-0.13755 0.13906,-0.51492 0.24045,-0.65247 0.0717,-0.0973 0.16876,0.0973 0.24045,0 0.28853,-0.39149 0.43281,-1.56596 0.72135,-1.95744 0.0717,-0.0973 0.16876,0.0973 0.24044,0 0.2366,-0.32104 0.72519,-2.28889 0.9618,-2.60993 0.0717,-0.0973 0.16876,0.0973 0.24044,0 0.20277,-0.27511 0.26584,-1.11043 0.4809,-1.30495 0.15208,-0.13756 0.32883,0.13755 0.4809,0 0.48514,-0.43883 1.7e-4,-1.30519 0.4809,-1.95745 0.0717,-0.0973 0.16441,0.0688 0.24045,0 0.17002,-0.15379 0.30703,-0.53452 0.4809,-0.65248 0.15551,-0.1055 0.32059,0 0.48089,0 0.24045,0 0.4809,0 0.72135,0"
       id="path14764" />
    <text
       xml:space="preserve"
       style="font-size:8px;font-style:normal;font-variant:normal;font-weight:normal;font-stretch:normal;text-align:start;line-height:125%;writing-mode:lr-tb;text-anchor:start;fill:#000000;fill-opacity:1;stroke:none;font-family:Verdana;-inkscape-font-specification:Verdana"
       x="430.52734"
       y="158.36218"
       id="text3237-3-4-5-9"
       sodipodi:linespacing="125%"><tspan
         sodipodi:role="line"
         x="430.52734"
         y="158.36218"
         style="font-size:10px;font-weight:normal;text-align:start;text-anchor:start;-inkscape-font-specification:Bitstream Charter"
         id="tspan15939">time</tspan></text>
    <text
       xml:space="preserve"
       style="font-size:8px;font-style:normal;font-variant:normal;font-weight:normal;font-stretch:normal;text-align:start;line-height:125%;writing-mode:lr-tb;text-anchor:start;fill:#000000;fill-opacity:1;stroke:none;font-family:Verdana;-inkscape-font-specification:Verdana"
       x="105"
       y="42.362183"
       id="text3237-3-4-5-1"
       sodipodi:linespacing="125%"><tspan
         sodipodi:role="line"
         x="105"
         y="42.362183"
         id="tspan4062-2-97"
         style="font-size:10px;font-weight:normal;text-align:start;text-anchor:start;-inkscape-font-specification:Bitstream Charter">ADC value</tspan></text>
    <text
       xml:space="preserve"
       style="font-size:10px;font-style:normal;font-variant:normal;font-weight:normal;font-stretch:normal;text-align:start;line-height:125%;writing-mode:lr-tb;text-anchor:start;fill:#000000;fill-opacity:1;stroke:none;font-family:Monospace;-inkscape-font-specification:Monospace"
       x="100.52734"
       y="148.36218"
       id="text3237-3-4-5-14"
       sodipodi:linespacing="125%"><tspan
         sodipodi:role="line"
         x="100.52734"
         y="148.36218"
         id="tspan4062-2-4"
         style="font-size:10px;font-style:normal;font-variant:normal;font-weight:normal;font-stretch:normal;text-align:start;line-height:125%;writing-mode:lr-tb;text-anchor:start;font-family:Monospace;-inkscape-font-specification:Monospace">0x0000</tspan></text>
    <text
       xml:space="preserve"
       style="font-size:10px;font-style:normal;font-variant:normal;font-weight:normal;font-stretch:normal;text-align:start;line-height:125%;writing-mode:lr-tb;text-anchor:start;fill:#000000;fill-opacity:1;stroke:none;font-family:Monospace;-inkscape-font-specification:Monospace"
       x="100.52734"
       y="138.36218"
       id="text3237-3-4-5-14-5"
       sodipodi:linespacing="125%"><tspan
         sodipodi:role="line"
         x="100.52734"
         y="138.36218"
         id="tspan4062-2-4-9"
         style="font-size:10px;font-style:normal;font-variant:normal;font-weight:normal;font-stretch:normal;text-align:start;line-height:125%;writing-mode:lr-tb;text-anchor:start;font-family:Monospace;-inkscape-font-specification:Monospace">0x0001</tspan></text>
    <text
       xml:space="preserve"
       style="font-size:10px;font-style:normal;font-variant:normal;font-weight:normal;font-stretch:normal;text-align:start;line-height:125%;writing-mode:lr-tb;text-anchor:start;fill:#000000;fill-opacity:1;stroke:none;font-family:Monospace;-inkscape-font-specification:Monospace"
       x="99.999992"
       y="67.362183"
       id="text3237-3-4-5-14-2"
       sodipodi:linespacing="125%"><tspan
         sodipodi:role="line"
         x="99.999992"
         y="67.362183"
         id="tspan4062-2-4-6"
         style="font-size:10px;font-style:normal;font-variant:normal;font-weight:normal;font-stretch:normal;text-align:start;line-height:125%;writing-mode:lr-tb;text-anchor:start;font-family:Monospace;-inkscape-font-specification:Monospace">0x3FFF</tspan></text>
    <text
       xml:space="preserve"
       style="font-size:10px;font-style:normal;font-variant:normal;font-weight:normal;font-stretch:normal;text-align:start;line-height:125%;writing-mode:lr-tb;text-anchor:start;fill:#000000;fill-opacity:1;stroke:none;font-family:Monospace;-inkscape-font-specification:Monospace"
       x="100.52734"
       y="158.36218"
       id="text3237-3-4-5-14-87"
       sodipodi:linespacing="125%"><tspan
         sodipodi:role="line"
         x="100.52734"
         y="158.36218"
         id="tspan4062-2-4-2"
         style="font-size:10px;font-style:normal;font-variant:normal;font-weight:normal;font-stretch:normal;text-align:start;line-height:125%;writing-mode:lr-tb;text-anchor:start;font-family:Monospace;-inkscape-font-specification:Monospace">0xFFFF</tspan></text>
    <text
       xml:space="preserve"
       style="font-size:10px;font-style:normal;font-variant:normal;font-weight:normal;font-stretch:normal;text-align:start;line-height:125%;writing-mode:lr-tb;text-anchor:start;fill:#000000;fill-opacity:1;stroke:none;font-family:Monospace;-inkscape-font-specification:Monospace"
       x="100.52734"
       y="233.36218"
       id="text3237-3-4-5-14-59"
       sodipodi:linespacing="125%"><tspan
         sodipodi:role="line"
         x="100.52734"
         y="233.36218"
         id="tspan4062-2-4-0"
         style="font-size:10px;font-style:normal;font-variant:normal;font-weight:normal;font-stretch:normal;text-align:start;line-height:125%;writing-mode:lr-tb;text-anchor:start;font-family:Monospace;-inkscape-font-specification:Monospace">0x8000</tspan></text>
    <path
       style="fill:none;stroke:#0020ff;stroke-width:1.99999988;stroke-linecap:butt;stroke-linejoin:miter;stroke-miterlimit:4;stroke-opacity:1;stroke-dasharray:8.00000004, 8.00000004;stroke-dashoffset:0"
       d="m 140.52735,188.91644 263.60267,0"
       id="path14758-6" />
    <text
       xml:space="preserve"
       style="font-size:8px;font-style:normal;font-variant:normal;font-weight:normal;font-stretch:normal;text-align:start;line-height:125%;writing-mode:lr-tb;text-anchor:start;fill:#0020ff;fill-opacity:1;stroke:none;font-family:Verdana;-inkscape-font-specification:Verdana"
       x="410.52734"
       y="188.36218"
       id="text3237-3-4-5-94-5"
       sodipodi:linespacing="125%"><tspan
         sodipodi:role="line"
         x="410.52734"
         y="188.36218"
         id="tspan4062-2-5-8"
         style="font-size:10px;font-weight:normal;text-align:start;text-anchor:start;fill:#0020ff;fill-opacity:1;-inkscape-font-specification:Bitstream Charter">Trigger threshold</tspan><tspan
         sodipodi:role="line"
         x="410.52734"
         y="200.86218"
         style="font-size:10px;font-weight:normal;text-align:start;text-anchor:start;fill:#0020ff;fill-opacity:1;-inkscape-font-specification:Bitstream Charter"
         id="tspan18046">(e.g. <tspan
   style="font-style:normal;font-variant:normal;font-weight:normal;font-stretch:normal;font-family:Monospace;-inkscape-font-specification:Monospace"
   id="tspan18048">0xC000</tspan>)</tspan></text>
    <text
       xml:space="preserve"
       style="font-size:10px;font-style:normal;font-variant:normal;font-weight:normal;font-stretch:normal;text-align:start;line-height:125%;writing-mode:lr-tb;text-anchor:start;fill:#000000;fill-opacity:1;stroke:none;font-family:Monospace;-inkscape-font-specification:Monospace"
       x="100.52734"
       y="168.36218"
       id="text3237-3-4-5-14-87-0"
       sodipodi:linespacing="125%"><tspan
         sodipodi:role="line"
         x="100.52734"
         y="168.36218"
         id="tspan4062-2-4-2-5"
         style="font-size:10px;font-style:normal;font-variant:normal;font-weight:normal;font-stretch:normal;text-align:start;line-height:125%;writing-mode:lr-tb;text-anchor:start;font-family:Monospace;-inkscape-font-specification:Monospace">0xFFFE</tspan></text>
    <text
       xml:space="preserve"
       style="font-size:10px;font-style:normal;font-variant:normal;font-weight:normal;font-stretch:normal;text-align:start;line-height:125%;writing-mode:lr-tb;text-anchor:start;fill:#000000;fill-opacity:1;stroke:none;font-family:Monospace;-inkscape-font-specification:Monospace"
       x="100.52734"
       y="128.36218"
       id="text3237-3-4-5-14-5-5"
       sodipodi:linespacing="125%"><tspan
         sodipodi:role="line"
         x="100.52734"
         y="128.36218"
         id="tspan4062-2-4-9-9"
         style="font-size:10px;font-style:normal;font-variant:normal;font-weight:normal;font-stretch:normal;text-align:start;line-height:125%;writing-mode:lr-tb;text-anchor:start;font-family:Monospace;-inkscape-font-specification:Monospace">0x0002</tspan></text>
    <path
       style="fill:none;stroke:#000000;stroke-width:1;stroke-linecap:butt;stroke-linejoin:miter;stroke-miterlimit:4;stroke-opacity:1;stroke-dasharray:1, 3.99999998;stroke-dashoffset:0;marker-end:url(#TriangleOutM)"
       d="m 115.52734,112.22974 0,-38.867558"
       id="path16156" />
    <path
       style="fill:none;stroke:#000000;stroke-width:0.99999994;stroke-linecap:butt;stroke-linejoin:miter;stroke-miterlimit:4;stroke-opacity:1;stroke-dasharray:1, 3.99999997;stroke-dashoffset:0;marker-end:url(#TriangleOutM)"
       d="m 115.52734,177.22974 0,41.13244"
       id="path16158" />
    <path
       style="fill:none;stroke:#000000;stroke-width:2;stroke-linecap:square;stroke-linejoin:miter;stroke-miterlimit:4;stroke-opacity:1;stroke-dasharray:none;marker-start:url(#DotS);marker-mid:none;marker-end:url(#TriangleOutM-7)"
       d="m 165.52734,187.5198 0,-19.15762"
       id="path5968-1-7-9" />
    <path
       style="fill:none;stroke:#000000;stroke-width:2;stroke-linecap:square;stroke-linejoin:miter;stroke-miterlimit:4;stroke-opacity:1;stroke-dasharray:none;marker-start:url(#DotS);marker-mid:none;marker-end:url(#TriangleOutM-7)"
       d="m 320.52734,188.36218 0,19.15762"
       id="path5968-1-7-9-0" />
    <path
       style="fill:none;stroke:#000000;stroke-width:2;stroke-linecap:square;stroke-linejoin:miter;stroke-miterlimit:4;stroke-opacity:1;stroke-dasharray:none;marker-start:url(#DotS);marker-mid:none;marker-end:url(#TriangleOutM-7)"
       d="m 385.52734,187.5198 0,-19.15762"
       id="path5968-1-7-9-07" />
    <path
       style="fill:none;stroke:#000000;stroke-width:2;stroke-linecap:square;stroke-linejoin:miter;stroke-miterlimit:4;stroke-opacity:1;stroke-dasharray:none;marker-start:url(#DotS);marker-mid:none;marker-end:url(#TriangleOutM-7)"
       d="m 330,87.362185 0,-19.157617"
       id="path5968-1-7-9-2" />
    <path
       style="fill:none;stroke:#000000;stroke-width:2;stroke-linecap:square;stroke-linejoin:miter;stroke-miterlimit:4;stroke-opacity:1;stroke-dasharray:none;marker-start:url(#DotS);marker-mid:none;marker-end:url(#TriangleOutM-7)"
       d="m 330,102.36218 0,19.15762"
       id="path5968-1-7-9-0-9" />
    <text
       xml:space="preserve"
       style="font-size:8px;font-style:normal;font-variant:normal;font-weight:normal;font-stretch:normal;text-align:start;line-height:125%;writing-mode:lr-tb;text-anchor:start;fill:#000000;fill-opacity:1;stroke:none;font-family:Verdana;-inkscape-font-specification:Verdana"
       x="340"
       y="82.362183"
       id="text3237-3-4-5-9-0"
       sodipodi:linespacing="125%"><tspan
         sodipodi:role="line"
         x="340"
         y="82.362183"
         style="font-size:10px;font-weight:normal;text-align:start;text-anchor:start;-inkscape-font-specification:Bitstream Charter"
         id="tspan15939-5">positive slope</tspan></text>
    <text
       xml:space="preserve"
       style="font-size:8px;font-style:normal;font-variant:normal;font-weight:normal;font-stretch:normal;text-align:start;line-height:125%;writing-mode:lr-tb;text-anchor:start;fill:#000000;fill-opacity:1;stroke:none;font-family:Verdana;-inkscape-font-specification:Verdana"
       x="340"
       y="112.36218"
       id="text3237-3-4-5-9-3"
       sodipodi:linespacing="125%"><tspan
         sodipodi:role="line"
         x="340"
         y="112.36218"
         style="font-size:10px;font-weight:normal;text-align:start;text-anchor:start;-inkscape-font-specification:Bitstream Charter"
         id="tspan15939-9">negative slope</tspan></text>
    <path
       style="fill:none;stroke:#000000;stroke-width:0.99999994px;stroke-linecap:butt;stroke-linejoin:miter;stroke-opacity:1"
       d="m 315.52734,58.362184 0,74.999996 110,0 0,-74.999996 -110,0 z"
       id="path18033" />
    <text
       xml:space="preserve"
       style="font-size:8px;font-style:normal;font-variant:normal;font-weight:normal;font-stretch:normal;text-align:start;line-height:125%;writing-mode:lr-tb;text-anchor:start;fill:#000000;fill-opacity:1;stroke:none;font-family:Verdana;-inkscape-font-specification:Verdana"
       x="315.52734"
       y="53.362186"
       id="text3237-3-4-5-9-32"
       sodipodi:linespacing="125%"><tspan
         sodipodi:role="line"
         x="315.52734"
         y="53.362186"
         style="font-size:10px;font-weight:normal;text-align:start;text-anchor:start;-inkscape-font-specification:Bitstream Charter"
         id="tspan15939-0">Polarity configuration</tspan></text>
  </g>
</svg>
